<?xml version="1.0" encoding="UTF-8" standalone="no"?>
<!-- Created with Inkscape (http://www.inkscape.org/) -->

<svg
   xmlns:dc="http://purl.org/dc/elements/1.1/"
   xmlns:cc="http://creativecommons.org/ns#"
   xmlns:rdf="http://www.w3.org/1999/02/22-rdf-syntax-ns#"
   xmlns:svg="http://www.w3.org/2000/svg"
   xmlns="http://www.w3.org/2000/svg"
   xmlns:sodipodi="http://sodipodi.sourceforge.net/DTD/sodipodi-0.dtd"
   xmlns:inkscape="http://www.inkscape.org/namespaces/inkscape"
   width="192.25836"
   height="170.35532"
   id="svg2"
   version="1.1"
   inkscape:version="0.48.2 r9819"
   sodipodi:docname="tritium-logo.svg">
  <defs
     id="defs4" />
  <sodipodi:namedview
     id="base"
     pagecolor="#ffffff"
     bordercolor="#666666"
     borderopacity="1.0"
     inkscape:pageopacity="0.0"
     inkscape:pageshadow="2"
     inkscape:zoom="0.66"
     inkscape:cx="-129.3264"
     inkscape:cy="48.920544"
     inkscape:document-units="px"
     inkscape:current-layer="layer1"
     showgrid="false"
     fit-margin-top="0"
     fit-margin-left="0"
     fit-margin-right="0"
     fit-margin-bottom="0"
     inkscape:window-width="1280"
     inkscape:window-height="689"
     inkscape:window-x="0"
     inkscape:window-y="0"
     inkscape:window-maximized="1" />
  <metadata
     id="metadata7">
    <rdf:RDF>
      <cc:Work
         rdf:about="">
        <dc:format>image/svg+xml</dc:format>
        <dc:type
           rdf:resource="http://purl.org/dc/dcmitype/StillImage" />
        <dc:title></dc:title>
      </cc:Work>
    </rdf:RDF>
  </metadata>
  <g
     inkscape:label="Layer 1"
     inkscape:groupmode="layer"
     id="layer1"
     transform="translate(-295.23549,-289.71527)">
    <g
       id="g2991"
       style="fill:#f8bd24;fill-opacity:1">
      <path
         transform="translate(-9.6489975,57.3531)"
         d="m 497.14286,286.64789 c 0,29.98117 -24.30454,54.28571 -54.28571,54.28571 -29.98117,0 -54.28572,-24.30454 -54.28572,-54.28571 0,-29.98117 24.30455,-54.28572 54.28572,-54.28572 29.98117,0 54.28571,24.30455 54.28571,54.28572 z"
         sodipodi:ry="54.285713"
         sodipodi:rx="54.285713"
         sodipodi:cy="286.64789"
         sodipodi:cx="442.85715"
         id="path2985"
         style="fill:#f8bd24;fill-opacity:1"
         sodipodi:type="arc" />
      <path
         transform="matrix(0.53269537,0,0,0.53269537,161.95075,278.45684)"
         sodipodi:type="arc"
         style="fill:#f8bd24;fill-opacity:1"
         id="path2987"
         sodipodi:cx="442.85715"
         sodipodi:cy="286.64789"
         sodipodi:rx="54.285713"
         sodipodi:ry="54.285713"
         d="m 497.14286,286.64789 c 0,29.98117 -24.30454,54.28571 -54.28571,54.28571 -29.98117,0 -54.28572,-24.30454 -54.28572,-54.28571 0,-29.98117 24.30455,-54.28572 54.28572,-54.28572 29.98117,0 54.28571,24.30455 54.28571,54.28572 z" />
      <path
         transform="matrix(0.7368421,0,0,0.7368421,8.9197035,170.53849)"
         d="m 497.14286,286.64789 c 0,29.98117 -24.30454,54.28571 -54.28571,54.28571 -29.98117,0 -54.28572,-24.30454 -54.28572,-54.28571 0,-29.98117 24.30455,-54.28572 54.28572,-54.28572 29.98117,0 54.28571,24.30455 54.28571,54.28572 z"
         sodipodi:ry="54.285713"
         sodipodi:rx="54.285713"
         sodipodi:cy="286.64789"
         sodipodi:cx="442.85715"
         id="path2989"
         style="fill:#f8bd24;fill-opacity:1"
         sodipodi:type="arc" />
    </g>
  </g>
</svg>
